<svg width="38" height="38" viewBox="0 0 38 38" fill="none" xmlns="http://www.w3.org/2000/svg">
<circle cx="19" cy="19" r="19" fill="white"/>
<path d="M11.3816 9.30876C11.1399 9.54786 11 9.92013 11 10.4022V27.5984C11 28.0805 11.1399 28.4527 11.3816 28.6918L11.4412 28.7443L21.6376 19.1121V18.8846L11.4412 9.25238L11.3816 9.30876Z" fill="url(#paint0_linear_84_636)"/>
<path d="M25.0326 22.3244L21.6376 19.1121V18.8846L25.0367 15.6723L25.1128 15.714L29.1383 17.8786C30.2872 18.4929 30.2872 19.5038 29.1383 20.1219L25.1128 22.2826L25.0326 22.3244V22.3244Z" fill="url(#paint1_linear_84_636)"/>
<path d="M25.1129 22.2826L21.6377 18.9983L11.3816 28.6918C11.7632 29.0709 12.3854 29.1166 13.093 28.7375L25.1129 22.2826" fill="url(#paint2_linear_84_636)"/>
<path d="M25.1129 15.7141L13.093 9.25919C12.3854 8.88401 11.7632 8.92969 11.3816 9.30876L21.6377 18.9984L25.1129 15.7141Z" fill="url(#paint3_linear_84_636)"/>
<defs>
<linearGradient id="paint0_linear_84_636" x1="20.7323" y1="27.7774" x2="7.70352" y2="13.9911" gradientUnits="userSpaceOnUse">
<stop stop-color="#00A0FF"/>
<stop offset="0.0066" stop-color="#00A1FF"/>
<stop offset="0.2601" stop-color="#00BEFF"/>
<stop offset="0.5122" stop-color="#00D2FF"/>
<stop offset="0.7604" stop-color="#00DFFF"/>
<stop offset="1" stop-color="#00E3FF"/>
</linearGradient>
<linearGradient id="paint1_linear_84_636" x1="30.6343" y1="18.9973" x2="10.7253" y2="18.9973" gradientUnits="userSpaceOnUse">
<stop stop-color="#FFE000"/>
<stop offset="0.4087" stop-color="#FFBD00"/>
<stop offset="0.7754" stop-color="#FFA500"/>
<stop offset="1" stop-color="#FF9C00"/>
</linearGradient>
<linearGradient id="paint2_linear_84_636" x1="23.2232" y1="17.2129" x2="5.55506" y2="-1.4825" gradientUnits="userSpaceOnUse">
<stop stop-color="#FF3A44"/>
<stop offset="1" stop-color="#C31162"/>
</linearGradient>
<linearGradient id="paint3_linear_84_636" x1="8.79992" y1="34.4129" x2="16.6895" y2="26.0646" gradientUnits="userSpaceOnUse">
<stop stop-color="#32A071"/>
<stop offset="0.0685" stop-color="#2DA771"/>
<stop offset="0.4762" stop-color="#15CF74"/>
<stop offset="0.8009" stop-color="#06E775"/>
<stop offset="1" stop-color="#00F076"/>
</linearGradient>
</defs>
</svg>
