<svg width="18" height="18" viewBox="0 0 18 18" fill="none" xmlns="http://www.w3.org/2000/svg">
<path d="M9 6.625C7.71622 6.625 6.625 7.71622 6.625 9C6.625 10.2838 7.71622 11.375 9 11.375C10.2838 11.375 11.375 10.2838 11.375 9C11.375 7.71622 10.2838 6.625 9 6.625Z" fill="#F6951F"/>
<path d="M12.0443 1.875H6.02045C3.68864 1.875 1.875 3.68864 1.875 5.95568V11.9795C1.875 14.3114 3.68864 16.125 6.02045 16.125H12.0443C14.3114 16.125 16.125 14.3114 16.125 11.9795V5.95568C16.125 3.68864 14.3114 1.875 12.0443 1.875ZM9 12.7568C6.92727 12.7568 5.30795 11.0727 5.30795 9.06477C5.30795 7.05682 6.92727 5.30795 9 5.30795C11.0727 5.30795 12.692 6.99205 12.692 9C12.692 11.008 11.0727 12.7568 9 12.7568ZM12.8216 6.08523C12.3682 6.08523 11.9795 5.69659 11.9795 5.24318C11.9795 4.78977 12.3682 4.40114 12.8216 4.40114C13.275 4.40114 13.6636 4.78977 13.6636 5.24318C13.6636 5.69659 13.275 6.08523 12.8216 6.08523Z" fill="#F6951F"/>
</svg>
