<svg width="38" height="38" viewBox="0 0 38 38" fill="none" xmlns="http://www.w3.org/2000/svg">
<circle cx="19" cy="19" r="19" fill="white"/>
<path d="M25.7046 18.7632C25.6766 15.7311 28.2474 14.256 28.365 14.1873C26.909 12.1149 24.6524 11.8317 23.8593 11.8091C21.964 11.6144 20.1255 12.9164 19.16 12.9164C18.1752 12.9164 16.6884 11.8279 15.086 11.8599C13.024 11.891 11.0949 13.0566 10.0369 14.8666C7.85344 18.5571 9.48188 23.9806 11.5738 26.9637C12.6202 28.4247 13.843 30.0559 15.4435 29.9985C17.0093 29.9355 17.5942 29.0239 19.4838 29.0239C21.356 29.0239 21.9052 29.9985 23.5375 29.9618C25.218 29.9355 26.276 28.4943 27.2858 27.0201C28.4951 25.3456 28.9807 23.6964 29 23.6118C28.9605 23.5986 25.7364 22.3973 25.7046 18.7632Z" fill="#CDCDCD"/>
<path d="M22.6211 9.84673C23.4633 8.81849 24.0395 7.41959 23.8796 6C22.6607 6.05268 21.1363 6.82316 20.2585 7.82882C19.4818 8.715 18.7881 10.1675 18.9673 11.5335C20.3365 11.6332 21.7424 10.859 22.6211 9.84673Z" fill="#CDCDCD"/>
</svg>
