<svg width="18" height="18" viewBox="0 0 18 18" fill="none" xmlns="http://www.w3.org/2000/svg">
<path d="M6.30006 14.25C11.1751 14.25 13.8751 10.2 13.8751 6.675C13.8751 6.525 13.8751 6.45 13.8751 6.3C14.4001 5.925 14.8501 5.475 15.2251 4.95C14.7751 5.175 14.2501 5.325 13.7251 5.4C14.2501 5.1 14.7001 4.575 14.9251 3.9C14.4001 4.2 13.8751 4.425 13.2751 4.575C12.6751 4.05 11.9251 3.75 11.1751 3.75C9.67506 3.75 8.55006 4.95 8.55006 6.375C8.55006 6.6 8.55006 6.75 8.62506 6.975C6.37506 6.9 4.42506 5.85 3.15006 4.2C2.92506 4.65 2.77506 5.1 2.77506 5.55C2.77506 6.45 3.22506 7.275 3.97506 7.725C3.52506 7.725 3.15006 7.575 2.77506 7.425C2.77506 8.7 3.67506 9.75 4.87506 10.05C4.65006 10.125 4.42506 10.2 4.20006 10.2C4.05006 10.2 3.90006 10.2 3.67506 10.125C3.97506 11.175 5.02506 11.925 6.15006 12C5.25006 12.675 4.12506 13.125 2.85006 13.125C2.62506 13.125 2.40006 13.125 2.25006 13.125C3.45006 13.8 4.80006 14.25 6.30006 14.25Z" fill="#F6951F"/>
</svg>
