<svg width="219" height="27" viewBox="0 0 219 27" fill="none" xmlns="http://www.w3.org/2000/svg">
<path d="M0.582386 27V0.818181H10.4006C12.4119 0.818181 14.0994 1.19318 15.4631 1.94318C16.8352 2.69318 17.8707 3.72443 18.5696 5.03693C19.277 6.34091 19.6307 7.82386 19.6307 9.4858C19.6307 11.1648 19.277 12.6562 18.5696 13.9602C17.8622 15.2642 16.8182 16.2912 15.4375 17.0412C14.0568 17.7827 12.3565 18.1534 10.3366 18.1534H3.82955V14.2543H9.69744C10.8736 14.2543 11.8366 14.0497 12.5866 13.6406C13.3366 13.2315 13.8906 12.669 14.2486 11.9531C14.6151 11.2372 14.7983 10.4148 14.7983 9.4858C14.7983 8.55682 14.6151 7.73864 14.2486 7.03125C13.8906 6.32386 13.3324 5.77415 12.5739 5.3821C11.8239 4.98153 10.8565 4.78125 9.67188 4.78125H5.32528V27H0.582386ZM24.1946 27H19.1321L28.3494 0.818181H34.2045L43.4347 27H38.3722L31.3793 6.1875H31.1747L24.1946 27ZM24.3608 16.7344H38.1676V20.544H24.3608V16.7344ZM49.9322 27L42.543 0.818181H47.6438L52.3612 20.0582H52.604L57.641 0.818181H62.2816L67.3313 20.071H67.5614L72.2788 0.818181H77.3796L69.9904 27H65.3114L60.07 8.62926H59.8654L54.6112 27H49.9322ZM85.4112 0.818181V27H80.6683V0.818181H85.4112ZM112.063 0.818181V27H107.844L95.5075 9.16619H95.2901V27H90.5472V0.818181H94.7915L107.115 18.6648H107.346V0.818181H112.063ZM117.231 27V0.818181H121.974V11.902H134.106V0.818181H138.862V27H134.106V15.8778H121.974V27H117.231ZM147.382 27H142.32L151.537 0.818181H157.392L166.622 27H161.56L154.567 6.1875H154.362L147.382 27ZM147.548 16.7344H161.355V20.544H147.548V16.7344ZM191.586 0.818181V27H187.368L175.031 9.16619H174.814V27H170.071V0.818181H174.315L186.639 18.6648H186.869V0.818181H191.586ZM205.626 27H196.754V0.818181H205.805C208.405 0.818181 210.638 1.34233 212.504 2.39062C214.379 3.4304 215.82 4.92614 216.825 6.87784C217.831 8.82955 218.334 11.1648 218.334 13.8835C218.334 16.6108 217.827 18.9545 216.812 20.9148C215.807 22.875 214.354 24.3793 212.453 25.4276C210.561 26.4759 208.286 27 205.626 27ZM201.497 22.8963H205.396C207.22 22.8963 208.741 22.5639 209.96 21.8991C211.179 21.2259 212.095 20.2244 212.709 18.8949C213.322 17.5568 213.629 15.8864 213.629 13.8835C213.629 11.8807 213.322 10.2187 212.709 8.89773C212.095 7.56818 211.188 6.57528 209.986 5.91903C208.793 5.25426 207.31 4.92188 205.537 4.92188H201.497V22.8963Z" fill="#F6951F"/>
</svg>
